#tb 0: 1/25
#media_type 0: video
#codec_id 0: rawvideo
#dimensions 0: 352x288
#sar 0: 0/1
0,          0,          0,        1,   405504, 0xa928c280
0,          1,          1,        1,   405504, 0xcdeffdb4
0,          2,          2,        1,   405504, 0xe5f56492
0,          3,          3,        1,   405504, 0x7f2ae8b1
0,          4,          4,        1,   405504, 0xcd7d355a
0,          5,          5,        1,   405504, 0x3e548ffe
0,          6,          6,        1,   405504, 0xfbb55115
0,          7,          7,        1,   405504, 0xbe551a3e
0,          8,          8,        1,   405504, 0x87f171eb
0,          9,          9,        1,   405504, 0x87cb1d1d
0,         10,         10,        1,   405504, 0xac28d439
0,         11,         11,        1,   405504, 0x2dc00f6d
0,         12,         12,        1,   405504, 0x6d396a8f
0,         13,         13,        1,   405504, 0x187457da
0,         14,         14,        1,   405504, 0x6ab3d4e8
0,         15,         15,        1,   405504, 0x8696d12c
0,         16,         16,        1,   405504, 0xf95ab32b
0,         17,         17,        1,   405504, 0x51e4b6c6
0,         18,         18,        1,   405504, 0xa61bdca5
0,         19,         19,        1,   405504, 0x2037dbd9
0,         20,         20,        1,   405504, 0x8f08204a
0,         21,         21,        1,   405504, 0x97160924
0,         22,         22,        1,   405504, 0x6472eac4
0,         23,         23,        1,   405504, 0x7147e570
0,         24,         24,        1,   405504, 0x101c4f01
0,         25,         25,        1,   405504, 0x3497bc80
0,         26,         26,        1,   405504, 0xfd64a4af
0,         27,         27,        1,   405504, 0xd5d0f7fa
0,         28,         28,        1,   405504, 0xc02bef84
0,         29,         29,        1,   405504, 0xbfe3844b
0,         30,         30,        1,   405504, 0xf57cebd2
0,         31,         31,        1,   405504, 0x324dba1a
0,         32,         32,        1,   405504, 0xae991924
0,         33,         33,        1,   405504, 0x9277fb04
0,         34,         34,        1,   405504, 0xe701f5b3
0,         35,         35,        1,   405504, 0x71ae480a
0,         36,         36,        1,   405504, 0x35fd5123
0,         37,         37,        1,   405504, 0x8e7bf6d3
0,         38,         38,        1,   405504, 0x5f5e9a28
0,         39,         39,        1,   405504, 0x71b0d74b
0,         40,         40,        1,   405504, 0xbf18e1fc
0,         41,         41,        1,   405504, 0x6d091423
0,         42,         42,        1,   405504, 0x1cbcd56d
0,         43,         43,        1,   405504, 0x8b49af80
0,         44,         44,        1,   405504, 0x1396e0c5
0,         45,         45,        1,   405504, 0xad087039
0,         46,         46,        1,   405504, 0xe22d7102
0,         47,         47,        1,   405504, 0x196c5e45
0,         48,         48,        1,   405504, 0xdd121391
0,         49,         49,        1,   405504, 0x667496ad
